<svg width="125" height="116" viewBox="0 0 125 116" fill="none" xmlns="http://www.w3.org/2000/svg">
<g filter="url(#filter0_i_10_3)">
<path fill-rule="evenodd" clip-rule="evenodd" d="M61.9759 82.9891C63.1445 82.9891 64.2652 83.4171 65.0916 84.179C65.9179 84.9408 66.3821 85.9741 66.3821 87.0516V101.433C66.3862 103.285 65.9935 105.12 65.2265 106.832C64.4596 108.544 63.3335 110.099 61.9129 111.409C60.4924 112.719 58.8052 113.757 56.9484 114.464C55.0915 115.171 53.1014 115.533 51.0924 115.53C49.0844 115.53 47.0959 115.166 45.2406 114.458C43.3853 113.749 41.6996 112.711 40.2797 111.402C38.8598 110.093 37.7336 108.539 36.9654 106.828C36.1973 105.118 35.8022 103.284 35.8028 101.433C35.8028 100.355 36.267 99.3221 37.0933 98.5602C37.9196 97.7983 39.0404 97.3703 40.209 97.3703C41.3776 97.3703 42.4984 97.7983 43.3247 98.5602C44.151 99.3221 44.6153 100.355 44.6153 101.433C44.6153 104.723 47.5013 107.405 51.0924 107.405C54.6967 107.405 57.5696 104.756 57.5696 101.433V87.0516C57.5696 85.9741 58.0339 84.9408 58.8602 84.179C59.6865 83.4171 60.8073 82.9891 61.9759 82.9891Z" fill="url(#paint0_linear_10_3)"/>
</g>
<g filter="url(#filter1_f_10_3)">
<path d="M40.209 100.218C40.2084 101.581 40.4991 102.93 41.0644 104.189C41.6298 105.448 42.4587 106.592 43.5038 107.556C44.5489 108.52 45.7897 109.284 47.1553 109.805C48.5209 110.326 49.9846 110.594 51.4626 110.594C52.9417 110.598 54.4072 110.333 55.7746 109.813C57.1421 109.293 58.3845 108.529 59.4304 107.564C60.4763 106.6 61.3051 105.455 61.869 104.194C62.4329 102.933 62.7208 101.582 62.7161 100.218V85.3494" stroke="url(#paint1_linear_10_3)" stroke-width="0.5" stroke-miterlimit="10" stroke-linecap="round"/>
</g>
<g filter="url(#filter2_i_10_3)">
<path d="M66.3821 11.2453C66.3821 10.1679 65.9179 9.13456 65.0916 8.37269C64.2652 7.61082 63.1445 7.18281 61.9759 7.18281C60.8073 7.18281 59.6865 7.61082 58.8602 8.37269C58.0338 9.13456 57.5696 10.1679 57.5696 11.2453V85C57.5696 85.2031 57.8913 85.2925 58.0235 85.1219C58.9708 83.9559 60.4249 82.9931 62.0508 82.9931C63.6062 82.9931 65.003 83.8991 65.9459 84.9797C66.0825 85.1341 66.3865 85.0488 66.3865 84.8456V11.2453H66.3821Z" fill="url(#paint2_radial_10_3)"/>
<path d="M66.3821 11.2453C66.3821 10.1679 65.9179 9.13456 65.0916 8.37269C64.2652 7.61082 63.1445 7.18281 61.9759 7.18281C60.8073 7.18281 59.6865 7.61082 58.8602 8.37269C58.0338 9.13456 57.5696 10.1679 57.5696 11.2453V85C57.5696 85.2031 57.8913 85.2925 58.0235 85.1219C58.9708 83.9559 60.4249 82.9931 62.0508 82.9931C63.6062 82.9931 65.003 83.8991 65.9459 84.9797C66.0825 85.1341 66.3865 85.0488 66.3865 84.8456V11.2453H66.3821Z" fill="url(#paint3_radial_10_3)"/>
</g>
<path d="M65.9811 5.43188C66.0693 5.77719 65.7608 6.07781 65.3819 6.07781H58.4376C58.0587 6.07781 57.7503 5.77719 57.8384 5.43188C58.0571 4.58799 58.5777 3.83665 59.3164 3.29912C60.0551 2.7616 60.9687 2.46924 61.9098 2.46924C62.8508 2.46924 63.7644 2.7616 64.5031 3.29912C65.2418 3.83665 65.7625 4.58799 65.9811 5.43188V5.43188Z" fill="url(#paint4_radial_10_3)"/>
<path d="M65.9811 5.43188C66.0693 5.77719 65.7608 6.07781 65.3819 6.07781H58.4376C58.0587 6.07781 57.7503 5.77719 57.8384 5.43188C58.0571 4.58799 58.5777 3.83665 59.3164 3.29912C60.0551 2.7616 60.9687 2.46924 61.9098 2.46924C62.8508 2.46924 63.7644 2.7616 64.5031 3.29912C65.2418 3.83665 65.7625 4.58799 65.9811 5.43188V5.43188Z" fill="url(#paint5_linear_10_3)"/>
<g filter="url(#filter3_i_10_3)">
<path d="M15.7984 54.6328C21.4384 54.6328 26.3734 57.4766 29.0171 61.6609C29.4577 62.3109 30.2068 62.7172 31.044 62.7172H31.3084C32.1456 62.7172 32.8946 62.3109 33.3352 61.6609C34.6841 59.5297 36.6133 57.7602 38.9318 56.5275C41.2502 55.2948 43.8777 54.6417 46.554 54.6328C52.194 54.6328 57.129 57.4766 59.7727 61.6609C60.2134 62.3109 60.9624 62.7172 61.7996 62.7172H62.064C62.9012 62.7172 63.6502 62.3109 64.0909 61.6609C65.4398 59.5297 67.3689 57.7602 69.6874 56.5275C72.0059 55.2948 74.6333 54.6417 77.3096 54.6328C82.9496 54.6328 87.8846 57.4766 90.5284 61.6609C90.969 62.3109 91.7181 62.7172 92.5552 62.7172H92.8196C93.6568 62.7172 94.4059 62.3109 94.8465 61.6609C96.1954 59.5297 98.1245 57.7602 100.443 56.5275C102.761 55.2948 105.389 54.6417 108.065 54.6328C113.97 54.6328 119.081 57.7203 121.636 62.2703C121.813 62.5547 122.121 62.7578 122.474 62.7578C123.002 62.7578 123.443 62.3516 123.443 61.8641C123.002 30.9078 95.6396 5.96406 61.9318 5.96406C28.224 5.96406 0.905245 30.9078 0.376495 61.8234C0.376495 62.3109 0.81712 62.7172 1.34587 62.7172C1.69837 62.7172 2.05087 62.5141 2.18306 62.2297C3.48897 59.9418 5.44675 58.0255 7.84577 56.6869C10.2448 55.3484 12.9943 54.6382 15.7984 54.6328V54.6328Z" fill="url(#paint6_radial_10_3)"/>
<path d="M15.7984 54.6328C21.4384 54.6328 26.3734 57.4766 29.0171 61.6609C29.4577 62.3109 30.2068 62.7172 31.044 62.7172H31.3084C32.1456 62.7172 32.8946 62.3109 33.3352 61.6609C34.6841 59.5297 36.6133 57.7602 38.9318 56.5275C41.2502 55.2948 43.8777 54.6417 46.554 54.6328C52.194 54.6328 57.129 57.4766 59.7727 61.6609C60.2134 62.3109 60.9624 62.7172 61.7996 62.7172H62.064C62.9012 62.7172 63.6502 62.3109 64.0909 61.6609C65.4398 59.5297 67.3689 57.7602 69.6874 56.5275C72.0059 55.2948 74.6333 54.6417 77.3096 54.6328C82.9496 54.6328 87.8846 57.4766 90.5284 61.6609C90.969 62.3109 91.7181 62.7172 92.5552 62.7172H92.8196C93.6568 62.7172 94.4059 62.3109 94.8465 61.6609C96.1954 59.5297 98.1245 57.7602 100.443 56.5275C102.761 55.2948 105.389 54.6417 108.065 54.6328C113.97 54.6328 119.081 57.7203 121.636 62.2703C121.813 62.5547 122.121 62.7578 122.474 62.7578C123.002 62.7578 123.443 62.3516 123.443 61.8641C123.002 30.9078 95.6396 5.96406 61.9318 5.96406C28.224 5.96406 0.905245 30.9078 0.376495 61.8234C0.376495 62.3109 0.81712 62.7172 1.34587 62.7172C1.69837 62.7172 2.05087 62.5141 2.18306 62.2297C3.48897 59.9418 5.44675 58.0255 7.84577 56.6869C10.2448 55.3484 12.9943 54.6382 15.7984 54.6328V54.6328Z" fill="url(#paint7_radial_10_3)"/>
<path d="M15.7984 54.6328C21.4384 54.6328 26.3734 57.4766 29.0171 61.6609C29.4577 62.3109 30.2068 62.7172 31.044 62.7172H31.3084C32.1456 62.7172 32.8946 62.3109 33.3352 61.6609C34.6841 59.5297 36.6133 57.7602 38.9318 56.5275C41.2502 55.2948 43.8777 54.6417 46.554 54.6328C52.194 54.6328 57.129 57.4766 59.7727 61.6609C60.2134 62.3109 60.9624 62.7172 61.7996 62.7172H62.064C62.9012 62.7172 63.6502 62.3109 64.0909 61.6609C65.4398 59.5297 67.3689 57.7602 69.6874 56.5275C72.0059 55.2948 74.6333 54.6417 77.3096 54.6328C82.9496 54.6328 87.8846 57.4766 90.5284 61.6609C90.969 62.3109 91.7181 62.7172 92.5552 62.7172H92.8196C93.6568 62.7172 94.4059 62.3109 94.8465 61.6609C96.1954 59.5297 98.1245 57.7602 100.443 56.5275C102.761 55.2948 105.389 54.6417 108.065 54.6328C113.97 54.6328 119.081 57.7203 121.636 62.2703C121.813 62.5547 122.121 62.7578 122.474 62.7578C123.002 62.7578 123.443 62.3516 123.443 61.8641C123.002 30.9078 95.6396 5.96406 61.9318 5.96406C28.224 5.96406 0.905245 30.9078 0.376495 61.8234C0.376495 62.3109 0.81712 62.7172 1.34587 62.7172C1.69837 62.7172 2.05087 62.5141 2.18306 62.2297C3.48897 59.9418 5.44675 58.0255 7.84577 56.6869C10.2448 55.3484 12.9943 54.6382 15.7984 54.6328V54.6328Z" fill="url(#paint8_radial_10_3)"/>
<path d="M15.7984 54.6328C21.4384 54.6328 26.3734 57.4766 29.0171 61.6609C29.4577 62.3109 30.2068 62.7172 31.044 62.7172H31.3084C32.1456 62.7172 32.8946 62.3109 33.3352 61.6609C34.6841 59.5297 36.6133 57.7602 38.9318 56.5275C41.2502 55.2948 43.8777 54.6417 46.554 54.6328C52.194 54.6328 57.129 57.4766 59.7727 61.6609C60.2134 62.3109 60.9624 62.7172 61.7996 62.7172H62.064C62.9012 62.7172 63.6502 62.3109 64.0909 61.6609C65.4398 59.5297 67.3689 57.7602 69.6874 56.5275C72.0059 55.2948 74.6333 54.6417 77.3096 54.6328C82.9496 54.6328 87.8846 57.4766 90.5284 61.6609C90.969 62.3109 91.7181 62.7172 92.5552 62.7172H92.8196C93.6568 62.7172 94.4059 62.3109 94.8465 61.6609C96.1954 59.5297 98.1245 57.7602 100.443 56.5275C102.761 55.2948 105.389 54.6417 108.065 54.6328C113.97 54.6328 119.081 57.7203 121.636 62.2703C121.813 62.5547 122.121 62.7578 122.474 62.7578C123.002 62.7578 123.443 62.3516 123.443 61.8641C123.002 30.9078 95.6396 5.96406 61.9318 5.96406C28.224 5.96406 0.905245 30.9078 0.376495 61.8234C0.376495 62.3109 0.81712 62.7172 1.34587 62.7172C1.69837 62.7172 2.05087 62.5141 2.18306 62.2297C3.48897 59.9418 5.44675 58.0255 7.84577 56.6869C10.2448 55.3484 12.9943 54.6382 15.7984 54.6328V54.6328Z" fill="url(#paint9_radial_10_3)"/>
</g>
<g filter="url(#filter4_f_10_3)">
<path d="M61.2092 10.5547V54.5922" stroke="url(#paint10_linear_10_3)" stroke-width="0.4" stroke-miterlimit="10" stroke-linecap="round"/>
</g>
<g filter="url(#filter5_f_10_3)">
<path d="M63.2757 10.5547V54.5922" stroke="url(#paint11_linear_10_3)" stroke-width="0.4" stroke-miterlimit="10" stroke-linecap="round"/>
</g>
<g filter="url(#filter6_if_10_3)">
<path d="M31.3965 54.3891C31.3965 30.0547 42.8968 13.5203 57.834 10.3516" stroke="#7B5EA6" stroke-width="0.5" stroke-miterlimit="10" stroke-linecap="round"/>
</g>
<g filter="url(#filter7_f_10_3)">
<path d="M92.7756 54.5922C92.7756 30.4203 81.4074 13.7641 66.6465 10.3922" stroke="url(#paint12_linear_10_3)" stroke-width="0.5" stroke-miterlimit="10" stroke-linecap="round"/>
</g>
<g filter="url(#filter8_f_10_3)">
<path d="M92.7756 54.5922C92.7756 30.4203 81.4074 13.7641 66.6465 10.3922" stroke="url(#paint13_linear_10_3)" stroke-width="0.15" stroke-miterlimit="10" stroke-linecap="round"/>
</g>
<g filter="url(#filter9_i_10_3)">
<path d="M19.5162 3.59167L19.5126 3.58939C16.836 1.87419 13.1091 2.53358 11.1884 5.06217L4.46741 13.9102C2.5467 16.4388 3.1595 19.8791 5.83615 21.5943L5.8397 21.5965C8.51634 23.3117 12.2432 22.6524 14.1639 20.1238L20.8849 11.2757C22.8056 8.74714 22.1928 5.30687 19.5162 3.59167Z" fill="#4C7CFD"/>
<path d="M19.5162 3.59167L19.5126 3.58939C16.836 1.87419 13.1091 2.53358 11.1884 5.06217L4.46741 13.9102C2.5467 16.4388 3.1595 19.8791 5.83615 21.5943L5.8397 21.5965C8.51634 23.3117 12.2432 22.6524 14.1639 20.1238L20.8849 11.2757C22.8056 8.74714 22.1928 5.30687 19.5162 3.59167Z" fill="url(#paint14_radial_10_3)"/>
</g>
<g filter="url(#filter10_i_10_3)">
<path d="M89.4213 3.59167L89.4178 3.58939C86.7411 1.87419 83.0142 2.53358 81.0935 5.06217L74.3726 13.9102C72.4519 16.4388 73.0647 19.8791 75.7413 21.5943L75.7449 21.5965C78.4215 23.3117 82.1484 22.6524 84.0691 20.1238L90.7901 11.2757C92.7108 8.74714 92.098 5.30687 89.4213 3.59167Z" fill="#5994FD"/>
<path d="M89.4213 3.59167L89.4178 3.58939C86.7411 1.87419 83.0142 2.53358 81.0935 5.06217L74.3726 13.9102C72.4519 16.4388 73.0647 19.8791 75.7413 21.5943L75.7449 21.5965C78.4215 23.3117 82.1484 22.6524 84.0691 20.1238L90.7901 11.2757C92.7108 8.74714 92.098 5.30687 89.4213 3.59167Z" fill="url(#paint15_radial_10_3)"/>
</g>
<path d="M89.3354 3.65219L89.3317 3.64987C86.6076 1.90127 82.8618 2.5198 80.9653 5.0314L74.3288 13.82C72.4323 16.3316 73.1032 19.7851 75.8273 21.5337L75.8309 21.5361C78.555 23.2847 82.3008 22.6661 84.1974 20.1545L90.8338 11.366C92.7303 8.85436 92.0595 5.40079 89.3354 3.65219Z" fill="url(#paint16_linear_10_3)"/>
<path d="M89.3354 3.65219L89.3317 3.64987C86.6076 1.90127 82.8618 2.5198 80.9653 5.0314L74.3288 13.82C72.4323 16.3316 73.1032 19.7851 75.8273 21.5337L75.8309 21.5361C78.555 23.2847 82.3008 22.6661 84.1974 20.1545L90.8338 11.366C92.7303 8.85436 92.0595 5.40079 89.3354 3.65219Z" fill="url(#paint17_linear_10_3)"/>
<g filter="url(#filter11_i_10_3)">
<path d="M49.6901 19.7686L49.6866 19.7663C47.0099 18.0511 43.2831 18.7105 41.3623 21.239L34.6414 30.0871C32.7207 32.6157 33.3335 36.0559 36.0101 37.7711L36.0137 37.7734C38.6903 39.4886 42.4172 38.8292 44.3379 36.3006L51.0589 27.4526C52.9796 24.924 52.3668 21.4838 49.6901 19.7686Z" fill="#4C7AF7"/>
<path d="M49.6901 19.7686L49.6866 19.7663C47.0099 18.0511 43.2831 18.7105 41.3623 21.239L34.6414 30.0871C32.7207 32.6157 33.3335 36.0559 36.0101 37.7711L36.0137 37.7734C38.6903 39.4886 42.4172 38.8292 44.3379 36.3006L51.0589 27.4526C52.9796 24.924 52.3668 21.4838 49.6901 19.7686Z" fill="url(#paint18_radial_10_3)"/>
</g>
<path d="M49.6042 19.8291L49.6006 19.8267C46.8765 18.0781 43.1307 18.6967 41.2341 21.2083L34.5977 29.9968C32.7011 32.5084 33.372 35.962 36.0961 37.7106L36.0997 37.7129C38.8238 39.4615 42.5696 38.843 44.4662 36.3314L51.1026 27.5428C52.9992 25.0312 52.3283 21.5777 49.6042 19.8291Z" fill="url(#paint19_linear_10_3)"/>
<g filter="url(#filter12_i_10_3)">
<path d="M119.595 19.7685L119.592 19.7663C116.915 18.0511 113.188 18.7104 111.268 21.239L104.547 30.0871C102.626 32.6157 103.239 36.0559 105.915 37.7711L105.919 37.7734C108.595 39.4886 112.322 38.8292 114.243 36.3006L120.964 27.4526C122.885 24.924 122.272 21.4837 119.595 19.7685Z" fill="#5794FC"/>
<path d="M119.595 19.7685L119.592 19.7663C116.915 18.0511 113.188 18.7104 111.268 21.239L104.547 30.0871C102.626 32.6157 103.239 36.0559 105.915 37.7711L105.919 37.7734C108.595 39.4886 112.322 38.8292 114.243 36.3006L120.964 27.4526C122.885 24.924 122.272 21.4837 119.595 19.7685Z" fill="url(#paint20_radial_10_3)"/>
</g>
<path d="M119.509 19.8291L119.506 19.8267C116.782 18.0781 113.036 18.6967 111.139 21.2083L104.503 29.9968C102.606 32.5084 103.277 35.962 106.001 37.7106L106.005 37.7129C108.729 39.4615 112.475 38.843 114.371 36.3314L121.008 27.5428C122.904 25.0312 122.233 21.5777 119.509 19.8291Z" fill="url(#paint21_linear_10_3)"/>
<g filter="url(#filter13_f_10_3)">
<path d="M87.2281 7.18281L80.2222 17.0384" stroke="#7DBFFF" stroke-width="0.5"/>
</g>
<g filter="url(#filter14_f_10_3)">
<path d="M117.631 23.8431L110.625 33.6987" stroke="#7DBFFF" stroke-width="0.5"/>
</g>
<g filter="url(#filter15_f_10_3)">
<path d="M47.2105 24.5094L40.209 34.3609" stroke="#5D8BFF" stroke-width="0.5"/>
</g>
<defs>
<filter id="filter0_i_10_3" x="35.8027" y="82.7391" width="30.8294" height="32.7906" filterUnits="userSpaceOnUse" color-interpolation-filters="sRGB">
<feFlood flood-opacity="0" result="BackgroundImageFix"/>
<feBlend mode="normal" in="SourceGraphic" in2="BackgroundImageFix" result="shape"/>
<feColorMatrix in="SourceAlpha" type="matrix" values="0 0 0 0 0 0 0 0 0 0 0 0 0 0 0 0 0 0 127 0" result="hardAlpha"/>
<feOffset dx="0.25" dy="-0.25"/>
<feGaussianBlur stdDeviation="0.25"/>
<feComposite in2="hardAlpha" operator="arithmetic" k2="-1" k3="1"/>
<feColorMatrix type="matrix" values="0 0 0 0 0.380392 0 0 0 0 0.203922 0 0 0 0 0.368627 0 0 0 1 0"/>
<feBlend mode="normal" in2="shape" result="effect1_innerShadow_10_3"/>
</filter>
<filter id="filter1_f_10_3" x="39.459" y="84.5994" width="24.0072" height="26.7444" filterUnits="userSpaceOnUse" color-interpolation-filters="sRGB">
<feFlood flood-opacity="0" result="BackgroundImageFix"/>
<feBlend mode="normal" in="SourceGraphic" in2="BackgroundImageFix" result="shape"/>
<feGaussianBlur stdDeviation="0.25" result="effect1_foregroundBlur_10_3"/>
</filter>
<filter id="filter2_i_10_3" x="57.5696" y="7.08281" width="8.8169" height="78.1291" filterUnits="userSpaceOnUse" color-interpolation-filters="sRGB">
<feFlood flood-opacity="0" result="BackgroundImageFix"/>
<feBlend mode="normal" in="SourceGraphic" in2="BackgroundImageFix" result="shape"/>
<feColorMatrix in="SourceAlpha" type="matrix" values="0 0 0 0 0 0 0 0 0 0 0 0 0 0 0 0 0 0 127 0" result="hardAlpha"/>
<feOffset dy="-0.1"/>
<feGaussianBlur stdDeviation="0.05"/>
<feComposite in2="hardAlpha" operator="arithmetic" k2="-1" k3="1"/>
<feColorMatrix type="matrix" values="0 0 0 0 0.27451 0 0 0 0 0.12549 0 0 0 0 0.427451 0 0 0 1 0"/>
<feBlend mode="normal" in2="shape" result="effect1_innerShadow_10_3"/>
</filter>
<filter id="filter3_i_10_3" x="0.376495" y="5.66406" width="123.067" height="57.0938" filterUnits="userSpaceOnUse" color-interpolation-filters="sRGB">
<feFlood flood-opacity="0" result="BackgroundImageFix"/>
<feBlend mode="normal" in="SourceGraphic" in2="BackgroundImageFix" result="shape"/>
<feColorMatrix in="SourceAlpha" type="matrix" values="0 0 0 0 0 0 0 0 0 0 0 0 0 0 0 0 0 0 127 0" result="hardAlpha"/>
<feOffset dy="-0.3"/>
<feGaussianBlur stdDeviation="0.3"/>
<feComposite in2="hardAlpha" operator="arithmetic" k2="-1" k3="1"/>
<feColorMatrix type="matrix" values="0 0 0 0 0.266667 0 0 0 0 0.184314 0 0 0 0 0.47451 0 0 0 1 0"/>
<feBlend mode="normal" in2="shape" result="effect1_innerShadow_10_3"/>
</filter>
<filter id="filter4_f_10_3" x="60.6092" y="9.95469" width="1.19999" height="45.2375" filterUnits="userSpaceOnUse" color-interpolation-filters="sRGB">
<feFlood flood-opacity="0" result="BackgroundImageFix"/>
<feBlend mode="normal" in="SourceGraphic" in2="BackgroundImageFix" result="shape"/>
<feGaussianBlur stdDeviation="0.2" result="effect1_foregroundBlur_10_3"/>
</filter>
<filter id="filter5_f_10_3" x="62.6757" y="9.95469" width="1.19999" height="45.2375" filterUnits="userSpaceOnUse" color-interpolation-filters="sRGB">
<feFlood flood-opacity="0" result="BackgroundImageFix"/>
<feBlend mode="normal" in="SourceGraphic" in2="BackgroundImageFix" result="shape"/>
<feGaussianBlur stdDeviation="0.2" result="effect1_foregroundBlur_10_3"/>
</filter>
<filter id="filter6_if_10_3" x="30.7465" y="9.70151" width="27.7376" height="45.3376" filterUnits="userSpaceOnUse" color-interpolation-filters="sRGB">
<feFlood flood-opacity="0" result="BackgroundImageFix"/>
<feBlend mode="normal" in="SourceGraphic" in2="BackgroundImageFix" result="shape"/>
<feColorMatrix in="SourceAlpha" type="matrix" values="0 0 0 0 0 0 0 0 0 0 0 0 0 0 0 0 0 0 127 0" result="hardAlpha"/>
<feOffset dx="-0.2" dy="-0.2"/>
<feGaussianBlur stdDeviation="2"/>
<feComposite in2="hardAlpha" operator="arithmetic" k2="-1" k3="1"/>
<feColorMatrix type="matrix" values="0 0 0 0 0.321569 0 0 0 0 0.254902 0 0 0 0 0.529412 0 0 0 1 0"/>
<feBlend mode="normal" in2="shape" result="effect1_innerShadow_10_3"/>
<feGaussianBlur stdDeviation="0.2" result="effect2_foregroundBlur_10_3"/>
</filter>
<filter id="filter7_f_10_3" x="66.0964" y="9.84214" width="27.2291" height="45.3001" filterUnits="userSpaceOnUse" color-interpolation-filters="sRGB">
<feFlood flood-opacity="0" result="BackgroundImageFix"/>
<feBlend mode="normal" in="SourceGraphic" in2="BackgroundImageFix" result="shape"/>
<feGaussianBlur stdDeviation="0.15" result="effect1_foregroundBlur_10_3"/>
</filter>
<filter id="filter8_f_10_3" x="66.4215" y="10.1672" width="26.5791" height="44.65" filterUnits="userSpaceOnUse" color-interpolation-filters="sRGB">
<feFlood flood-opacity="0" result="BackgroundImageFix"/>
<feBlend mode="normal" in="SourceGraphic" in2="BackgroundImageFix" result="shape"/>
<feGaussianBlur stdDeviation="0.075" result="effect1_foregroundBlur_10_3"/>
</filter>
<filter id="filter9_i_10_3" x="3.34828" y="2.48491" width="19.4057" height="20.0661" filterUnits="userSpaceOnUse" color-interpolation-filters="sRGB">
<feFlood flood-opacity="0" result="BackgroundImageFix"/>
<feBlend mode="normal" in="SourceGraphic" in2="BackgroundImageFix" result="shape"/>
<feColorMatrix in="SourceAlpha" type="matrix" values="0 0 0 0 0 0 0 0 0 0 0 0 0 0 0 0 0 0 127 0" result="hardAlpha"/>
<feOffset dx="0.75" dy="-0.15"/>
<feGaussianBlur stdDeviation="0.5"/>
<feComposite in2="hardAlpha" operator="arithmetic" k2="-1" k3="1"/>
<feColorMatrix type="matrix" values="0 0 0 0 0.254902 0 0 0 0 0.305882 0 0 0 0 0.682353 0 0 0 1 0"/>
<feBlend mode="normal" in2="shape" result="effect1_innerShadow_10_3"/>
</filter>
<filter id="filter10_i_10_3" x="73.2534" y="2.53491" width="18.8057" height="20.0161" filterUnits="userSpaceOnUse" color-interpolation-filters="sRGB">
<feFlood flood-opacity="0" result="BackgroundImageFix"/>
<feBlend mode="normal" in="SourceGraphic" in2="BackgroundImageFix" result="shape"/>
<feColorMatrix in="SourceAlpha" type="matrix" values="0 0 0 0 0 0 0 0 0 0 0 0 0 0 0 0 0 0 127 0" result="hardAlpha"/>
<feOffset dx="0.15" dy="-0.1"/>
<feGaussianBlur stdDeviation="0.2"/>
<feComposite in2="hardAlpha" operator="arithmetic" k2="-1" k3="1"/>
<feColorMatrix type="matrix" values="0 0 0 0 0.463958 0 0 0 0 0.552704 0 0 0 0 0.85 0 0 0 1 0"/>
<feBlend mode="normal" in2="shape" result="effect1_innerShadow_10_3"/>
</filter>
<filter id="filter11_i_10_3" x="33.5223" y="18.7118" width="18.8057" height="20.0161" filterUnits="userSpaceOnUse" color-interpolation-filters="sRGB">
<feFlood flood-opacity="0" result="BackgroundImageFix"/>
<feBlend mode="normal" in="SourceGraphic" in2="BackgroundImageFix" result="shape"/>
<feColorMatrix in="SourceAlpha" type="matrix" values="0 0 0 0 0 0 0 0 0 0 0 0 0 0 0 0 0 0 127 0" result="hardAlpha"/>
<feOffset dx="0.15" dy="-0.1"/>
<feGaussianBlur stdDeviation="0.2"/>
<feComposite in2="hardAlpha" operator="arithmetic" k2="-1" k3="1"/>
<feColorMatrix type="matrix" values="0 0 0 0 0.463958 0 0 0 0 0.552704 0 0 0 0 0.85 0 0 0 1 0"/>
<feBlend mode="normal" in2="shape" result="effect1_innerShadow_10_3"/>
</filter>
<filter id="filter12_i_10_3" x="103.427" y="18.7118" width="18.9057" height="20.0161" filterUnits="userSpaceOnUse" color-interpolation-filters="sRGB">
<feFlood flood-opacity="0" result="BackgroundImageFix"/>
<feBlend mode="normal" in="SourceGraphic" in2="BackgroundImageFix" result="shape"/>
<feColorMatrix in="SourceAlpha" type="matrix" values="0 0 0 0 0 0 0 0 0 0 0 0 0 0 0 0 0 0 127 0" result="hardAlpha"/>
<feOffset dx="0.25" dy="-0.1"/>
<feGaussianBlur stdDeviation="0.5"/>
<feComposite in2="hardAlpha" operator="arithmetic" k2="-1" k3="1"/>
<feColorMatrix type="matrix" values="0 0 0 0 0.278431 0 0 0 0 0.34902 0 0 0 0 0.8 0 0 0 1 0"/>
<feBlend mode="normal" in2="shape" result="effect1_innerShadow_10_3"/>
</filter>
<filter id="filter13_f_10_3" x="79.0184" y="6.03796" width="9.41347" height="12.1453" filterUnits="userSpaceOnUse" color-interpolation-filters="sRGB">
<feFlood flood-opacity="0" result="BackgroundImageFix"/>
<feBlend mode="normal" in="SourceGraphic" in2="BackgroundImageFix" result="shape"/>
<feGaussianBlur stdDeviation="0.5" result="effect1_foregroundBlur_10_3"/>
</filter>
<filter id="filter14_f_10_3" x="109.422" y="22.6983" width="9.41346" height="12.1453" filterUnits="userSpaceOnUse" color-interpolation-filters="sRGB">
<feFlood flood-opacity="0" result="BackgroundImageFix"/>
<feBlend mode="normal" in="SourceGraphic" in2="BackgroundImageFix" result="shape"/>
<feGaussianBlur stdDeviation="0.5" result="effect1_foregroundBlur_10_3"/>
</filter>
<filter id="filter15_f_10_3" x="39.0052" y="23.3645" width="9.40909" height="12.1412" filterUnits="userSpaceOnUse" color-interpolation-filters="sRGB">
<feFlood flood-opacity="0" result="BackgroundImageFix"/>
<feBlend mode="normal" in="SourceGraphic" in2="BackgroundImageFix" result="shape"/>
<feGaussianBlur stdDeviation="0.5" result="effect1_foregroundBlur_10_3"/>
</filter>
<linearGradient id="paint0_linear_10_3" x1="51.0924" y1="82.9891" x2="51.0924" y2="112.117" gradientUnits="userSpaceOnUse">
<stop stop-color="#7B4F49"/>
<stop offset="1" stop-color="#60333E"/>
</linearGradient>
<linearGradient id="paint1_linear_10_3" x1="58.6492" y1="109.842" x2="58.6492" y2="68.6241" gradientUnits="userSpaceOnUse">
<stop offset="0.381" stop-color="#886B69"/>
<stop offset="1" stop-color="#886B69" stop-opacity="0"/>
</linearGradient>
<radialGradient id="paint2_radial_10_3" cx="0" cy="0" r="1" gradientUnits="userSpaceOnUse" gradientTransform="translate(61.9759 83.3019) rotate(-90) scale(23.8401 13.2447)">
<stop stop-color="#504570"/>
<stop offset="1" stop-color="#3E3157"/>
</radialGradient>
<radialGradient id="paint3_radial_10_3" cx="0" cy="0" r="1" gradientUnits="userSpaceOnUse" gradientTransform="translate(63.6767 83.2694) scale(4.40625 4.0625)">
<stop stop-color="#504573"/>
<stop offset="1" stop-color="#504573" stop-opacity="0"/>
</radialGradient>
<radialGradient id="paint4_radial_10_3" cx="0" cy="0" r="1" gradientUnits="userSpaceOnUse" gradientTransform="translate(63.1215 5.89906) rotate(-90) scale(2.73581 3.54122)">
<stop stop-color="#6C5983"/>
<stop offset="1" stop-color="#563E71"/>
</radialGradient>
<linearGradient id="paint5_linear_10_3" x1="62.3372" y1="6.07781" x2="62.3372" y2="5.19219" gradientUnits="userSpaceOnUse">
<stop stop-color="#4A1876"/>
<stop offset="1" stop-color="#4A1876" stop-opacity="0"/>
</linearGradient>
<radialGradient id="paint6_radial_10_3" cx="0" cy="0" r="1" gradientUnits="userSpaceOnUse" gradientTransform="translate(89.7925 27.9219) rotate(160.176) scale(65.5957 94.2225)">
<stop offset="0.245" stop-color="#8A60BB"/>
<stop offset="1" stop-color="#554A87"/>
</radialGradient>
<radialGradient id="paint7_radial_10_3" cx="0" cy="0" r="1" gradientUnits="userSpaceOnUse" gradientTransform="translate(61.9098 62.7578) rotate(-25.8651) scale(61.126 123.925)">
<stop offset="0.76" stop-color="#8A63B5" stop-opacity="0"/>
<stop offset="1" stop-color="#8A63B5"/>
</radialGradient>
<radialGradient id="paint8_radial_10_3" cx="0" cy="0" r="1" gradientUnits="userSpaceOnUse" gradientTransform="translate(94.6708 34.3676) rotate(169.402) scale(93.7426 173.704)">
<stop offset="0.885" stop-color="#625D82" stop-opacity="0"/>
<stop offset="1" stop-color="#625D82"/>
</radialGradient>
<radialGradient id="paint9_radial_10_3" cx="0" cy="0" r="1" gradientUnits="userSpaceOnUse" gradientTransform="translate(61.9144 20.4212) rotate(141.862) scale(49.1675 21.6222)">
<stop stop-color="#604695"/>
<stop offset="1" stop-color="#604695" stop-opacity="0"/>
</radialGradient>
<linearGradient id="paint10_linear_10_3" x1="-nan" y1="-nan" x2="-nan" y2="-nan" gradientUnits="userSpaceOnUse">
<stop stop-color="#7463A2"/>
<stop offset="1" stop-color="#7463A2" stop-opacity="0"/>
</linearGradient>
<linearGradient id="paint11_linear_10_3" x1="-nan" y1="-nan" x2="-nan" y2="-nan" gradientUnits="userSpaceOnUse">
<stop stop-color="#593E94"/>
<stop offset="1" stop-color="#68429F" stop-opacity="0"/>
</linearGradient>
<linearGradient id="paint12_linear_10_3" x1="87.4132" y1="47.8281" x2="63.0511" y2="5.36495" gradientUnits="userSpaceOnUse">
<stop stop-color="#7845AE"/>
<stop offset="1" stop-color="#7147A3"/>
</linearGradient>
<linearGradient id="paint13_linear_10_3" x1="92.7756" y1="59.2153" x2="86.8963" y2="18.5982" gradientUnits="userSpaceOnUse">
<stop stop-color="#805FB2"/>
<stop offset="1" stop-color="#805FB2" stop-opacity="0"/>
</linearGradient>
<radialGradient id="paint14_radial_10_3" cx="0" cy="0" r="1" gradientUnits="userSpaceOnUse" gradientTransform="translate(22.1628 5.03814) rotate(-18.5441) scale(7.26747 6.21221)">
<stop stop-color="#72A7FF"/>
<stop offset="1" stop-color="#72A7FF" stop-opacity="0"/>
</radialGradient>
<radialGradient id="paint15_radial_10_3" cx="0" cy="0" r="1" gradientUnits="userSpaceOnUse" gradientTransform="translate(92.068 5.03814) rotate(-18.5441) scale(7.26747 6.21221)">
<stop stop-color="#7DBFFF"/>
<stop offset="1" stop-color="#7DBFFF" stop-opacity="0"/>
</radialGradient>
<linearGradient id="paint16_linear_10_3" x1="74.4648" y1="26.0399" x2="79.3398" y2="17.3117" gradientUnits="userSpaceOnUse">
<stop stop-color="#414BB6"/>
<stop offset="1" stop-color="#414BB6" stop-opacity="0"/>
</linearGradient>
<linearGradient id="paint17_linear_10_3" x1="78.1028" y1="4.91166" x2="84.444" y2="9.68352" gradientUnits="userSpaceOnUse">
<stop stop-color="#6487CC"/>
<stop offset="1" stop-color="#6487CC" stop-opacity="0"/>
</linearGradient>
<radialGradient id="paint18_radial_10_3" cx="0" cy="0" r="1" gradientUnits="userSpaceOnUse" gradientTransform="translate(52.3343 21.2184) rotate(-18.5441) scale(7.26747 6.21221)">
<stop stop-color="#6EA6FF"/>
<stop offset="1" stop-color="#6EA6FF" stop-opacity="0"/>
</radialGradient>
<linearGradient id="paint19_linear_10_3" x1="34.7275" y1="42.2178" x2="39.6083" y2="33.488" gradientUnits="userSpaceOnUse">
<stop stop-color="#414BB6"/>
<stop offset="1" stop-color="#414BB6" stop-opacity="0"/>
</linearGradient>
<radialGradient id="paint20_radial_10_3" cx="0" cy="0" r="1" gradientUnits="userSpaceOnUse" gradientTransform="translate(122.243 21.2206) rotate(-18.5441) scale(7.26747 6.21221)">
<stop stop-color="#7DBFFF"/>
<stop offset="1" stop-color="#7DBFFF" stop-opacity="0"/>
</radialGradient>
<linearGradient id="paint21_linear_10_3" x1="104.636" y1="42.2201" x2="109.514" y2="33.4884" gradientUnits="userSpaceOnUse">
<stop stop-color="#4D53CC"/>
<stop offset="1" stop-color="#4D53CC" stop-opacity="0"/>
</linearGradient>
</defs>
</svg>
