<svg version="1.1" id="Layer_1" xmlns="http://www.w3.org/2000/svg" xmlns:xlink="http://www.w3.org/1999/xlink" x="0px" y="0px"
	 width="100%" viewBox="0 0 510 489" enable-background="new 0 0 510 489" xml:space="preserve">
<path fill="#000000" opacity="1.000000" stroke="none" 
	d="
M294.000000,490.000000 
	C196.000031,490.000000 98.500046,490.000000 1.000052,490.000000 
	C1.000035,327.000061 1.000035,164.000122 1.000017,1.000140 
	C170.999893,1.000093 340.999786,1.000093 510.999756,1.000047 
	C510.999847,163.999863 510.999847,326.999725 510.999939,489.999786 
	C438.833344,490.000000 366.666656,490.000000 294.000000,490.000000 
M424.433807,186.182495 
	C424.252380,186.507370 424.070984,186.832245 423.303314,187.373566 
	C422.535919,188.554581 421.768524,189.735611 420.328552,191.293610 
	C417.967834,197.270447 420.261200,203.456833 425.698608,205.779419 
	C431.440216,208.231949 437.903900,205.672165 440.455872,199.935074 
	C442.971619,194.279343 440.815033,188.756180 434.999420,186.002014 
	C434.999420,186.002014 435.021851,185.988754 434.710724,185.363785 
	C433.801849,185.303528 432.892975,185.243256 431.545410,185.038361 
	C431.545410,185.038361 431.084473,185.008087 430.769196,184.424988 
	C429.838745,184.627823 428.908264,184.830658 427.511719,185.098846 
	C427.511719,185.098846 427.078400,185.282516 426.464142,185.122253 
	C425.998962,185.417450 425.533783,185.712646 424.994385,186.002670 
	C424.994385,186.002670 424.988770,186.076828 424.433807,186.182495 
M318.157898,190.603363 
	C308.691010,199.456711 307.897919,211.172546 307.780762,223.217010 
	C306.474945,223.217010 305.484222,223.190964 304.495209,223.221115 
	C296.346039,223.469498 292.226593,227.885757 292.155487,236.435974 
	C292.081604,245.320038 295.770752,249.648590 304.094635,249.761093 
	C307.684845,249.809586 308.130432,251.473953 308.112885,254.410995 
	C308.025391,269.075165 308.066925,283.740112 308.076172,298.404785 
	C308.080688,305.566071 310.186707,308.717926 317.054230,309.593750 
	C321.367554,310.143799 325.936523,309.513641 330.281158,308.771393 
	C334.993652,307.966339 336.928192,304.653046 336.893616,299.840759 
	C336.784546,284.676941 336.849548,269.511841 336.868500,254.347260 
	C336.870300,252.912903 337.021912,251.478745 337.093597,250.225357 
	C347.698792,250.225357 357.919495,250.225357 368.220276,250.225357 
	C368.220276,259.436676 368.108521,268.269562 368.259399,277.097961 
	C368.360962,283.041107 368.499878,289.018829 369.221924,294.907532 
	C370.195923,302.851227 375.366547,308.664886 382.219086,309.706665 
	C388.365326,310.641052 394.399445,309.677795 399.962555,306.787354 
	C404.199188,304.586151 408.434845,296.203491 407.695984,291.704712 
	C406.791534,286.197693 404.012054,282.390289 397.784027,281.955231 
	C397.784027,266.062347 397.798553,250.410736 397.774994,234.759186 
	C397.768097,230.196884 394.370117,225.326462 390.210144,224.381073 
	C387.185272,223.693665 384.031555,223.295288 380.930817,223.267578 
	C367.704742,223.149368 354.477020,223.224014 341.249878,223.206451 
	C339.813690,223.204544 338.377686,223.061508 336.598755,222.965408 
	C337.054779,219.431396 336.954865,216.162186 338.052917,213.362869 
	C338.621765,211.912537 341.481354,210.254822 343.011902,210.503220 
	C346.970612,211.145645 350.727722,212.935104 354.638000,213.999588 
	C358.053802,214.929443 363.285980,212.060928 363.678467,208.776016 
	C364.329346,203.328629 364.169952,198.018005 359.891907,193.546814 
	C349.276550,182.452194 333.032684,180.994019 318.157898,190.603363 
M87.157669,222.499924 
	C87.157806,247.968338 87.210083,273.436951 87.109673,298.904968 
	C87.091743,303.450989 88.855942,306.978333 93.016052,308.092499 
	C97.346756,309.252319 102.179596,310.086365 106.509949,309.364807 
	C114.653122,308.007935 115.922745,305.715881 115.927002,297.179565 
	C115.931030,289.090424 115.927864,281.001251 115.927864,273.817932 
	C125.886215,273.817932 135.286240,274.446320 144.568863,273.670288 
	C158.412003,272.513000 169.306656,265.817841 175.990906,253.340607 
	C181.253967,243.516235 182.691162,233.071976 180.981918,221.933090 
	C178.413589,205.195816 169.529297,194.235855 153.756638,187.938675 
	C140.903961,182.807266 127.720200,183.825424 114.633171,184.485123 
	C107.462547,184.846603 100.314919,187.422073 93.358414,189.633148 
	C88.984947,191.023224 86.749275,194.371201 87.050049,199.533463 
	C87.475334,206.832932 87.157730,214.175659 87.157669,222.499924 
M192.161667,257.499908 
	C192.170700,264.330872 191.923660,271.173615 192.237976,277.990509 
	C193.092926,296.531982 205.477249,308.769043 223.711548,309.717316 
	C235.709320,310.341248 246.710236,306.923065 254.121582,301.391663 
	C257.412872,303.570465 260.083466,305.440491 262.852295,307.151520 
	C270.183441,311.681854 277.627258,310.449249 284.974182,307.258362 
	C291.675049,304.348083 293.385010,298.042755 293.511749,291.836029 
	C293.626862,286.197327 290.235168,282.093140 283.804047,281.901123 
	C283.804047,262.980957 283.819580,244.496292 283.795197,226.011673 
	C283.787170,219.947281 281.693848,216.315781 276.328644,215.497910 
	C271.670776,214.787872 266.679169,214.985931 262.029114,215.839722 
	C256.580536,216.840118 254.228256,220.595291 254.222717,226.176895 
	C254.208481,240.505310 254.075394,254.836197 254.318970,269.160492 
	C254.380035,272.751373 253.293320,275.391296 250.495499,277.146057 
	C247.093353,279.279785 243.587708,281.488251 239.820618,282.750519 
	C231.973419,285.379944 224.029999,282.090515 222.179901,275.692108 
	C221.326355,272.740173 220.988663,269.550720 220.959915,266.463898 
	C220.832794,252.803085 220.680618,239.134918 221.017960,225.481293 
	C221.141663,220.475037 219.226685,216.970947 214.798187,216.269730 
	C209.429291,215.419632 203.733017,215.449356 198.348679,216.247330 
	C193.763000,216.926941 192.004517,220.714478 192.099579,225.511719 
	C192.304169,235.837463 192.161942,246.170074 192.161667,257.499908 
M368.245911,197.836639 
	C368.479462,208.381500 374.552094,214.449997 384.264069,213.843903 
	C391.708679,213.379303 396.876648,208.184265 397.793304,200.243820 
	C398.505646,194.073486 393.884949,186.997055 387.884583,185.068939 
	C378.120880,181.931580 370.828918,186.493240 368.245911,197.836639 
z"/>
<path fill="#F4FBFD" opacity="1.000000" stroke="none" 
	d="
M318.420776,190.354248 
	C333.032684,180.994019 349.276550,182.452194 359.891907,193.546814 
	C364.169952,198.018005 364.329346,203.328629 363.678467,208.776016 
	C363.285980,212.060928 358.053802,214.929443 354.638000,213.999588 
	C350.727722,212.935104 346.970612,211.145645 343.011902,210.503220 
	C341.481354,210.254822 338.621765,211.912537 338.052917,213.362869 
	C336.954865,216.162186 337.054779,219.431396 336.598755,222.965408 
	C338.377686,223.061508 339.813690,223.204544 341.249878,223.206451 
	C354.477020,223.224014 367.704742,223.149368 380.930817,223.267578 
	C384.031555,223.295288 387.185272,223.693665 390.210144,224.381073 
	C394.370117,225.326462 397.768097,230.196884 397.774994,234.759186 
	C397.798553,250.410736 397.784027,266.062347 397.784027,281.955231 
	C404.012054,282.390289 406.791534,286.197693 407.695984,291.704712 
	C408.434845,296.203491 404.199188,304.586151 399.962555,306.787354 
	C394.399445,309.677795 388.365326,310.641052 382.219086,309.706665 
	C375.366547,308.664886 370.195923,302.851227 369.221924,294.907532 
	C368.499878,289.018829 368.360962,283.041107 368.259399,277.097961 
	C368.108521,268.269562 368.220276,259.436676 368.220276,250.225357 
	C357.919495,250.225357 347.698792,250.225357 337.093597,250.225357 
	C337.021912,251.478745 336.870300,252.912903 336.868500,254.347260 
	C336.849548,269.511841 336.784546,284.676941 336.893616,299.840759 
	C336.928192,304.653046 334.993652,307.966339 330.281158,308.771393 
	C325.936523,309.513641 321.367554,310.143799 317.054230,309.593750 
	C310.186707,308.717926 308.080688,305.566071 308.076172,298.404785 
	C308.066925,283.740112 308.025391,269.075165 308.112885,254.410995 
	C308.130432,251.473953 307.684845,249.809586 304.094635,249.761093 
	C295.770752,249.648590 292.081604,245.320038 292.155487,236.435974 
	C292.226593,227.885757 296.346039,223.469498 304.495209,223.221115 
	C305.484222,223.190964 306.474945,223.217010 307.780762,223.217010 
	C307.897919,211.172546 308.691010,199.456711 318.420776,190.354248 
z"/>
<path fill="#F6FCFD" opacity="1.000000" stroke="none" 
	d="
M87.157669,221.999908 
	C87.157730,214.175659 87.475334,206.832932 87.050049,199.533463 
	C86.749275,194.371201 88.984947,191.023224 93.358414,189.633148 
	C100.314919,187.422073 107.462547,184.846603 114.633171,184.485123 
	C127.720200,183.825424 140.903961,182.807266 153.756638,187.938675 
	C169.529297,194.235855 178.413589,205.195816 180.981918,221.933090 
	C182.691162,233.071976 181.253967,243.516235 175.990906,253.340607 
	C169.306656,265.817841 158.412003,272.513000 144.568863,273.670288 
	C135.286240,274.446320 125.886215,273.817932 115.927864,273.817932 
	C115.927864,281.001251 115.931030,289.090424 115.927002,297.179565 
	C115.922745,305.715881 114.653122,308.007935 106.509949,309.364807 
	C102.179596,310.086365 97.346756,309.252319 93.016052,308.092499 
	C88.855942,306.978333 87.091743,303.450989 87.109673,298.904968 
	C87.210083,273.436951 87.157806,247.968338 87.157669,221.999908 
M152.121780,232.255341 
	C152.126038,231.090836 152.234772,229.915802 152.118439,228.763474 
	C150.911346,216.806473 146.560059,211.175125 134.341660,210.042282 
	C128.037766,209.457809 121.574570,210.591354 115.421532,210.935318 
	C115.608337,213.927063 115.888298,216.490219 115.906487,219.055237 
	C115.965485,227.372955 115.983192,235.691925 115.895210,244.009125 
	C115.868782,246.507812 116.305946,248.249512 119.292740,248.281616 
	C126.228477,248.356140 133.297714,249.406921 140.063736,248.395554 
	C148.050110,247.201767 150.991425,240.543411 152.121780,232.255341 
z"/>
<path fill="#F4FBFD" opacity="1.000000" stroke="none" 
	d="
M192.161667,256.999878 
	C192.161942,246.170074 192.304169,235.837463 192.099579,225.511719 
	C192.004517,220.714478 193.763000,216.926941 198.348679,216.247330 
	C203.733017,215.449356 209.429291,215.419632 214.798187,216.269730 
	C219.226685,216.970947 221.141663,220.475037 221.017960,225.481293 
	C220.680618,239.134918 220.832794,252.803085 220.959915,266.463898 
	C220.988663,269.550720 221.326355,272.740173 222.179901,275.692108 
	C224.029999,282.090515 231.973419,285.379944 239.820618,282.750519 
	C243.587708,281.488251 247.093353,279.279785 250.495499,277.146057 
	C253.293320,275.391296 254.380035,272.751373 254.318970,269.160492 
	C254.075394,254.836197 254.208481,240.505310 254.222717,226.176895 
	C254.228256,220.595291 256.580536,216.840118 262.029114,215.839722 
	C266.679169,214.985931 271.670776,214.787872 276.328644,215.497910 
	C281.693848,216.315781 283.787170,219.947281 283.795197,226.011673 
	C283.819580,244.496292 283.804047,262.980957 283.804047,281.901123 
	C290.235168,282.093140 293.626862,286.197327 293.511749,291.836029 
	C293.385010,298.042755 291.675049,304.348083 284.974182,307.258362 
	C277.627258,310.449249 270.183441,311.681854 262.852295,307.151520 
	C260.083466,305.440491 257.412872,303.570465 254.121582,301.391663 
	C246.710236,306.923065 235.709320,310.341248 223.711548,309.717316 
	C205.477249,308.769043 193.092926,296.531982 192.237976,277.990509 
	C191.923660,271.173615 192.170700,264.330872 192.161667,256.999878 
z"/>
<path fill="#EBF8FB" opacity="1.000000" stroke="none" 
	d="
M368.438141,197.475281 
	C370.828918,186.493240 378.120880,181.931580 387.884583,185.068939 
	C393.884949,186.997055 398.505646,194.073486 397.793304,200.243820 
	C396.876648,208.184265 391.708679,213.379303 384.264069,213.843903 
	C374.552094,214.449997 368.479462,208.381500 368.438141,197.475281 
z"/>
<path fill="#EBF8FB" opacity="1.000000" stroke="none" 
	d="
M431.084473,185.008087 
	C431.084473,185.008087 431.545410,185.038361 431.998688,185.341919 
	C433.308594,185.759903 434.165222,185.874329 435.021851,185.988754 
	C435.021851,185.988754 434.999420,186.002014 435.080750,186.233948 
	C435.076050,187.012924 434.990051,187.559998 434.676270,188.043457 
	C434.448456,187.979858 433.996948,187.837143 433.784119,187.615250 
	C433.072113,187.758392 432.572937,188.123428 432.073792,188.488464 
	C432.705627,188.999542 433.337494,189.510635 434.190552,190.136688 
	C434.687225,190.460693 434.871979,190.731628 434.963318,191.430511 
	C434.971680,192.528610 434.982697,193.260635 434.836304,194.318222 
	C434.834137,196.681946 434.989410,198.720123 435.144714,200.758286 
	C434.571106,201.371429 433.997498,201.984573 433.423920,202.597717 
	C432.567169,199.872299 431.710419,197.146881 430.853668,194.421448 
	C430.119843,195.061783 429.386017,195.702103 428.652222,196.342422 
	C428.176697,197.833389 427.701172,199.324356 427.225647,200.815308 
	C426.910156,200.747101 426.594696,200.678879 426.279236,200.610657 
	C426.279236,196.643051 426.279236,192.675461 426.279236,188.707855 
	C425.998901,188.517532 425.718567,188.327194 425.438232,188.136856 
	C424.249512,190.068069 423.060760,191.999283 421.620514,193.719742 
	C421.246368,192.644867 421.123749,191.780746 421.001129,190.916626 
	C421.768524,189.735611 422.535919,188.554581 423.856537,187.165054 
	C424.602753,186.663315 424.795776,186.370071 424.988770,186.076843 
	C424.988770,186.076828 424.994385,186.002670 425.316833,186.043457 
	C426.118988,185.817001 426.598694,185.549759 427.078400,185.282501 
	C427.078400,185.282516 427.511719,185.098846 428.132111,185.113052 
	C429.529816,185.087524 430.307159,185.047806 431.084473,185.008087 
z"/>
<path fill="#BAE7F1" opacity="1.000000" stroke="none" 
	d="
M420.664856,191.105118 
	C421.123749,191.780746 421.246368,192.644867 421.667511,194.126770 
	C421.836639,199.000443 423.338867,202.824677 427.655823,203.458725 
	C430.510925,203.878067 434.326263,202.850784 436.566406,201.047989 
	C439.231445,198.903259 440.025543,195.178757 437.683685,191.635712 
	C436.684387,192.511322 435.839081,193.251999 434.993744,193.992676 
	C434.982697,193.260635 434.971680,192.528610 435.233521,191.294586 
	C435.305634,189.897400 435.104858,189.002243 434.904053,188.107071 
	C434.990051,187.559998 435.076050,187.012924 435.083923,186.221436 
	C440.815033,188.756180 442.971619,194.279343 440.455872,199.935074 
	C437.903900,205.672165 431.440216,208.231949 425.698608,205.779419 
	C420.261200,203.456833 417.967834,197.270447 420.664856,191.105118 
z"/>
<path fill="#BAE7F1" opacity="1.000000" stroke="none" 
	d="
M430.926819,184.716537 
	C430.307159,185.047806 429.529816,185.087524 428.365173,185.080383 
	C428.908264,184.830658 429.838745,184.627823 430.926819,184.716537 
z"/>
<path fill="#BAE7F1" opacity="1.000000" stroke="none" 
	d="
M434.866272,185.676270 
	C434.165222,185.874329 433.308594,185.759903 432.218018,185.414230 
	C432.892975,185.243256 433.801849,185.303528 434.866272,185.676270 
z"/>
<path fill="#BAE7F1" opacity="1.000000" stroke="none" 
	d="
M426.771271,185.202377 
	C426.598694,185.549759 426.118988,185.817001 425.353943,186.046051 
	C425.533783,185.712646 425.998962,185.417450 426.771271,185.202377 
z"/>
<path fill="#BAE7F1" opacity="1.000000" stroke="none" 
	d="
M424.711304,186.129669 
	C424.795776,186.370071 424.602753,186.663315 424.149658,187.056824 
	C424.070984,186.832245 424.252380,186.507370 424.711304,186.129669 
z"/>
<path fill="#000000" opacity="1.000000" stroke="none" 
	d="
M152.114471,232.698944 
	C150.991425,240.543411 148.050110,247.201767 140.063736,248.395554 
	C133.297714,249.406921 126.228477,248.356140 119.292740,248.281616 
	C116.305946,248.249512 115.868782,246.507812 115.895210,244.009125 
	C115.983192,235.691925 115.965485,227.372955 115.906487,219.055237 
	C115.888298,216.490219 115.608337,213.927063 115.421532,210.935318 
	C121.574570,210.591354 128.037766,209.457809 134.341660,210.042282 
	C146.560059,211.175125 150.911346,216.806473 152.118439,228.763474 
	C152.234772,229.915802 152.126038,231.090836 152.114471,232.698944 
z"/>
<path fill="#6ACDE6" opacity="1.000000" stroke="none" 
	d="
M434.836304,194.318237 
	C435.839081,193.251999 436.684387,192.511322 437.683685,191.635712 
	C440.025543,195.178757 439.231445,198.903259 436.566406,201.047989 
	C434.326263,202.850784 430.510925,203.878067 427.655823,203.458725 
	C423.338867,202.824677 421.836639,199.000443 421.919037,194.337524 
	C423.060760,191.999283 424.249512,190.068069 425.438232,188.136856 
	C425.718567,188.327194 425.998901,188.517532 426.279236,188.707855 
	C426.279236,192.675461 426.279236,196.643051 426.279236,200.610657 
	C426.594696,200.678879 426.910156,200.747101 427.225647,200.815308 
	C427.701172,199.324356 428.176697,197.833389 428.652222,196.342422 
	C429.386017,195.702103 430.119843,195.061783 430.853668,194.421448 
	C431.710419,197.146881 432.567169,199.872299 433.423920,202.597717 
	C433.997498,201.984573 434.571106,201.371429 435.144714,200.758286 
	C434.989410,198.720123 434.834137,196.681946 434.836304,194.318237 
z"/>
<path fill="#BAE7F1" opacity="1.000000" stroke="none" 
	d="
M433.969299,190.021729 
	C433.337494,189.510635 432.705627,188.999542 432.073792,188.488464 
	C432.572937,188.123428 433.072113,187.758392 433.749817,187.979431 
	C433.942017,189.050903 433.955658,189.536316 433.969299,190.021729 
z"/>
<path fill="#6ACDE6" opacity="1.000000" stroke="none" 
	d="
M434.190552,190.136688 
	C433.955658,189.536316 433.942017,189.050903 433.962646,188.201324 
	C433.996948,187.837143 434.448456,187.979858 434.676270,188.043457 
	C435.104858,189.002243 435.305634,189.897400 435.236206,190.928513 
	C434.871979,190.731628 434.687225,190.460693 434.190552,190.136688 
z"/>
</svg>