<svg width="512" height="512" viewBox="0 0 512 512" fill="none" xmlns="http://www.w3.org/2000/svg">
<path d="M256 0C260.243 0 264.313 1.68571 267.314 4.68629C270.314 7.68687 272 11.7565 272 16V32.448C404 39.616 512 135.04 512 256C512 256 512 272 496 272C491.232 272 484.736 267.36 484.736 267.36L484.608 267.232L483.808 266.496C478.314 261.724 472.365 257.501 466.048 253.888C450.856 244.988 433.606 240.202 416 240C395.584 240 378.304 246.816 365.952 253.888C359.635 257.501 353.686 261.724 348.192 266.496L347.392 267.232L347.296 267.328C347.296 267.328 340.768 272 336 272C331.232 272 324.736 267.36 324.736 267.36L324.608 267.232L323.808 266.496C318.314 261.724 312.365 257.501 306.048 253.888C295.503 247.796 283.984 243.574 272 241.408V432H256H272V433.248L271.84 435.904C270.981 448.166 267.742 460.144 262.304 471.168C256.769 482.529 248.35 492.239 237.888 499.328C225.92 507.232 210.784 512 192 512C173.216 512 158.048 507.264 146.112 499.328C135.648 492.241 127.228 482.531 121.696 471.168C115.869 459.339 112.577 446.423 112.032 433.248V432.448L112 432.16V432.064C112 432.064 112 432 128 432H112V416C112 411.757 113.686 407.687 116.686 404.686C119.687 401.686 123.757 400 128 400C132.243 400 136.313 401.686 139.314 404.686C142.314 407.687 144 411.757 144 416V432.192L144.096 433.6C144.656 441.674 146.775 449.564 150.336 456.832C153.376 462.944 157.696 468.576 163.872 472.672C169.952 476.736 178.784 480 192 480C205.216 480 214.048 476.736 220.128 472.672C226.304 468.576 230.624 462.944 233.696 456.832C237.46 449.136 239.605 440.75 240 432.192V241.408C228.016 243.574 216.497 247.796 205.952 253.888C199.324 257.688 193.105 262.159 187.392 267.232L187.264 267.36C187.264 267.36 180.8 272 176 272C171.232 272 164.736 267.36 164.736 267.36L164.608 267.232C158.895 262.159 152.676 257.688 146.048 253.888C130.856 244.988 113.606 240.202 96 240C75.584 240 58.336 246.816 45.952 253.888C39.3242 257.688 33.1048 262.159 27.392 267.232L27.264 267.36C27.264 267.36 20.8 272 16 272C0 272 0 256 0 256C0 135.04 108 39.616 240 32.448V16C240 11.7565 241.686 7.68687 244.686 4.68629C247.687 1.68571 251.757 0 256 0V0ZM210.464 67.936C119.808 83.936 50.784 146.592 35.296 223.264C54.0138 213.381 74.834 208.146 96 208C121.792 208 143.36 216 158.784 224.352C159.34 198.843 163.037 173.5 169.792 148.896C177.536 121.12 190.272 92.416 210.464 67.936ZM190.784 225.696C210.639 214.286 233.101 208.191 256 208C278.899 208.191 301.361 214.286 321.216 225.696C320.779 202.657 317.479 179.761 311.392 157.536C301.888 123.456 284.736 90.56 256 67.744C227.264 90.528 210.112 123.424 200.608 157.472C194.518 179.707 191.218 202.614 190.784 225.664V225.696ZM301.504 67.936C321.696 92.416 334.464 121.12 342.208 148.896C349.664 175.552 352.704 202.016 353.216 224.352C372.465 213.782 394.04 208.163 416 208C440.64 208 461.44 215.36 476.704 223.264C461.216 146.592 392.192 83.904 301.536 67.936H301.504Z" fill="white"/>
</svg>
