<svg width="150" height="128" viewBox="0 0 150 128" fill="none" xmlns="http://www.w3.org/2000/svg">
<g clip-path="url(#clip0_13_50)">
<path fill-rule="evenodd" clip-rule="evenodd" d="M75 0C76.2432 0 77.4355 0.421427 78.3146 1.17157C79.1936 1.92172 79.6875 2.93913 79.6875 4V8.112C118.359 9.904 150 33.76 150 64C150 64 150 68 145.312 68C143.916 68 142.012 66.84 142.012 66.84L141.975 66.808L141.741 66.624C140.131 65.4309 138.388 64.3752 136.538 63.472C132.087 61.2471 127.033 60.0504 121.875 60C115.894 60 110.831 61.704 107.212 63.472C105.362 64.3752 103.619 65.4309 102.009 66.624L101.775 66.808L101.747 66.832C101.747 66.832 99.8344 68 98.4375 68C97.0406 68 95.1375 66.84 95.1375 66.84L95.1 66.808L94.8656 66.624C93.256 65.4309 91.5133 64.3752 89.6625 63.472C86.5732 61.949 83.1985 60.8934 79.6875 60.352V108H75H79.6875V108.312L79.6406 108.976C79.389 112.042 78.4401 115.036 76.8469 117.792C75.2253 120.632 72.7588 123.06 69.6938 124.832C66.1875 126.808 61.7531 128 56.25 128C50.7469 128 46.3031 126.816 42.8062 124.832C39.7406 123.06 37.2739 120.633 35.6531 117.792C33.9459 114.835 32.9815 111.606 32.8219 108.312V108.112L32.8125 108.04V108.016C32.8125 108.016 32.8125 108 37.5 108H32.8125V104C32.8125 102.939 33.3064 101.922 34.1854 101.172C35.0645 100.421 36.2568 100 37.5 100C38.7432 100 39.9355 100.421 40.8146 101.172C41.6936 101.922 42.1875 102.939 42.1875 104V108.048L42.2156 108.4C42.3797 110.419 43.0005 112.391 44.0437 114.208C44.9344 115.736 46.2 117.144 48.0094 118.168C49.7906 119.184 52.3781 120 56.25 120C60.1219 120 62.7094 119.184 64.4906 118.168C66.3 117.144 67.5656 115.736 68.4656 114.208C69.5683 112.284 70.1969 110.187 70.3125 108.048V60.352C66.8015 60.8934 63.4268 61.949 60.3375 63.472C58.3958 64.422 56.5737 65.5399 54.9 66.808L54.8625 66.84C54.8625 66.84 52.9688 68 51.5625 68C50.1656 68 48.2625 66.84 48.2625 66.84L48.225 66.808C46.5513 65.5399 44.7292 64.422 42.7875 63.472C38.3366 61.2471 33.283 60.0504 28.125 60C22.1437 60 17.0906 61.704 13.4625 63.472C11.5208 64.422 9.69868 65.5399 8.025 66.808L7.9875 66.84C7.9875 66.84 6.09375 68 4.6875 68C0 68 0 64 0 64C0 33.76 31.6406 9.904 70.3125 8.112V4C70.3125 2.93913 70.8064 1.92172 71.6854 1.17157C72.5645 0.421427 73.7568 0 75 0V0Z" fill="#252850"/>
</g>
<defs>
<clipPath id="clip0_13_50">
<rect width="150" height="128" fill="white"/>
</clipPath>
</defs>
</svg>
